<?xml version="1.0" encoding="UTF-8"?>
<svg viewBox="0 0 306 65" version="1.1" xmlns="http://www.w3.org/2000/svg" xmlns:xlink="http://www.w3.org/1999/xlink">
    <g id="Page-1" stroke="none" stroke-width="1" fill="none" fill-rule="evenodd">
        <g id="logo-2" fill-rule="nonzero">
            <g id="logo">
                <g id="Group" transform="translate(0.576070, 0.000000)" fill="#0FA0D4">
                    <path d="M41.1673537,36.1901776 C46.8930272,29.9273083 50.0916941,23.9088597 51.8516565,18.6620921 C51.8516565,18.6779894 51.8516565,18.6779894 51.8569556,18.6885876 C51.8569556,18.6885876 52.5650473,16.8411902 53.12079,13.9333111 C53.161858,13.7398941 53.1896783,13.5630368 53.2261095,13.3676326 C53.2678399,13.1238742 53.3108951,12.8728295 53.3479888,12.6171481 C54.029585,8.38250782 53.8030486,5.03612856 53.5062993,3.06420239 C53.6010206,2.97478014 53.7017034,2.86349912 53.7964248,2.73632081 C54.1455027,2.29715821 54.2945398,1.84276071 54.140866,1.72154388 L53.9553977,1.58111783 L54.3157362,0 L52.602141,0.541832588 L52.3749422,0.372261509 C52.2166317,0.256343779 51.8145628,0.520636203 51.4714463,0.959136415 C51.4025581,1.05385776 51.3389689,1.14460478 51.2859779,1.23402703 C51.2859779,1.23402703 45.0111856,1.4294312 37.7520862,6.03964491 L37.7633468,6.03964491 C27.612928,12.2992023 22.8126092,22.1422735 22.8126092,22.1422735 C4.50489417,19.6848177 0.423927697,36.7286982 0.423927697,36.7286982 C36.108704,34.6355552 31.3766111,61.5966944 31.3766111,61.5966944 C46.9930476,54.7456254 41.1673537,36.1901776 41.1673537,36.1901776 Z M39.9889672,26.8425719 C38.3707557,28.624393 35.6430459,29.0920382 33.4386219,27.8209175 C30.9116154,26.366978 30.0286535,23.1901698 31.4660333,20.7267525 C31.6409035,20.4200673 31.8469059,20.1478262 32.0741046,19.8967815 C33.6863546,18.1149604 36.4140644,17.6493023 38.6237875,18.9184359 C41.1461573,20.3670763 42.0344183,23.546534 40.5970385,26.0132633 C40.4168692,26.3192861 40.2102045,26.5941767 39.9889672,26.8425719 Z" id="Shape"></path>
                    <path d="M14.5387329,63.8097295 C23.3458308,60.6110625 26.5497968,48.9828582 26.5497968,48.9828582 C17.1929177,53.1751057 14.5387329,63.8097295 14.5387329,63.8097295 Z" id="Path"></path>
                    <path d="M5.17059313,64.7999981 C16.8438397,60.4918328 21.0360872,44.6634324 21.0360872,44.6634324 C8.64481309,50.3149186 5.17059313,64.7999981 5.17059313,64.7999981 Z" id="Path"></path>
                    <path d="M3.50535215,55.1635916 C12.3131124,51.9702237 15.5170785,40.344669 15.5170785,40.344669 C6.16483606,44.5296303 3.50535215,55.1635916 3.50535215,55.1635916 Z" id="Path"></path>
                </g>
                <g id="SvgjsG1990" transform="translate(73.266849, 13.118299)" fill="#FFFFFF">
                    <path d="M14.3108657,1.88170552 C20.4016493,1.88170552 24.2640975,5.69463513 26.0962845,9.06189764 L20.7482793,12.2310859 C18.8665738,9.60660187 17.0343868,8.26960058 14.3108657,8.26960058 C11.8844559,8.26960058 10.1017875,9.705639 10.1017875,11.6863817 C10.1017875,13.6671243 11.2407146,14.7070142 13.9642357,15.6973855 L16.3411269,16.5392012 C24.0165047,19.2627223 27.0371372,22.6795034 27.0371372,27.4332858 C27.0371372,34.4154036 20.4016493,37.8817055 14.5089399,37.8817055 C8.26960058,37.8817055 3.41678108,34.1678108 1.73314982,29.3149913 L7.27922925,26.3933959 C8.51719341,28.9188427 10.5969732,31.3452525 14.5089399,31.3452525 C17.3314982,31.3452525 19.5103151,30.1072883 19.5103151,27.5323229 C19.5103151,25.0563946 18.0247581,23.9669861 14.2613471,22.5309477 L12.1320488,21.7881692 C7.03163642,19.9559822 2.92159541,17.4305354 2.92159541,11.3892703 C2.92159541,5.84319083 8.12104488,1.88170552 14.3108657,1.88170552 L14.3108657,1.88170552 Z M53.7771631,2.47592832 L53.7771631,9.11141621 L45.1609325,9.11141621 L45.1609325,37.1389248 L37.9312218,37.1389248 L37.9312218,9.11141621 L29.2654727,9.11141621 L29.2654727,2.47592832 L53.7771631,2.47592832 Z M75.9614808,1.98074265 C85.6176012,1.98074265 93.9367204,9.25997191 93.9367204,19.8074265 C93.9367204,30.3548812 85.6176012,37.6341104 75.9614808,37.6341104 C66.3053603,37.6341104 57.9862412,30.3548812 57.9862412,19.8074265 C57.9862412,9.25997191 66.3053603,1.98074265 75.9614808,1.98074265 L75.9614808,1.98074265 Z M75.9614808,30.8500668 C81.8046716,30.8500668 86.4098983,26.2448402 86.4098983,19.8074265 C86.4098983,13.3700129 81.8046716,8.76478624 75.9614808,8.76478624 C70.1182899,8.76478624 65.5130633,13.3700129 65.5130633,19.8074265 C65.5130633,26.2448402 70.1182899,30.8500668 75.9614808,30.8500668 L75.9614808,30.8500668 Z M121.815673,2.47592832 L129.045384,2.47592832 L129.045384,37.1389248 L123.548823,37.1389248 L106.365881,15.647867 L106.365881,37.1389248 L99.1361698,37.1389248 L99.1361698,2.47592832 L104.731768,2.47592832 L121.815673,24.0165047 L121.815673,2.47592832 Z M157.419522,37.1389248 L146.673994,22.2833549 L142.415397,27.1361744 L142.415397,37.1389248 L134.987612,37.1389248 L134.987612,2.47592832 L142.415397,2.47592832 L142.415397,17.5790911 L155.240705,2.47592832 L164.154047,2.47592832 L151.130664,17.2324611 L165.738642,37.1389248 L157.419522,37.1389248 L157.419522,37.1389248 Z" id="Shape"></path>
                </g>
                <g id="SvgjsG1991" transform="translate(243.765707, 13.013963)" fill="#FFFFFF">
                    <path d="M37.3375309,19.8603888 C37.3375309,25.6695525 34.5570765,30.5353478 30.5849987,33.71301 L33.613708,37.238229 L31.875924,37.238229 L29.5423283,34.5074255 C26.612921,36.5927663 23.1373529,37.7347387 19.7610868,37.7347387 C11.2211197,37.7347387 2.23429374,30.3367439 2.23429374,19.8603888 C2.23429374,9.3840337 11.2211197,1.98603888 19.7610868,1.98603888 C28.301054,1.98603888 37.3375309,9.3840337 37.3375309,19.8603888 L37.3375309,19.8603888 Z M19.7610868,36.2452095 C22.7897961,36.2452095 25.9178074,35.2521901 28.5989599,33.4151041 L20.0589927,23.4849097 L21.7967767,23.4849097 L29.6416303,32.6206886 C33.2661512,29.7409322 35.8976527,25.2723447 35.8976527,19.8603888 C35.8976527,10.1287983 27.4569875,3.47556804 19.7610868,3.47556804 C12.1148372,3.47556804 3.67417193,10.1287983 3.67417193,19.8603888 C3.67417193,29.5919793 12.1148372,36.2452095 19.7610868,36.2452095 Z M43.9907612,35.7983508 L61.2196484,35.7983508 L61.2196484,37.238229 L42.550883,37.238229 L42.550883,2.4825486 L43.9907612,2.4825486 L43.9907612,35.7983508 Z" id="Shape"></path>
                </g>
            </g>
        </g>
    </g>
</svg>